<?xml version="1.0" standalone="no"?>
<!DOCTYPE svg PUBLIC "-//W3C//DTD SVG 20010904//EN"
 "http://www.w3.org/TR/2001/REC-SVG-20010904/DTD/svg10.dtd">
<svg version="1.0" xmlns="http://www.w3.org/2000/svg"
 width="130.000000pt" height="40.000000pt" viewBox="0 0 130.000000 40.000000"
 preserveAspectRatio="xMidYMid meet">

<g transform="translate(0.000000,40.000000) scale(0.100000,-0.100000)"
fill="#000000" stroke="none">
<path d="M759 351 c-24 -16 -62 -47 -84 -71 -47 -49 -84 -71 -140 -81 -24 -5
-1 -6 55 -3 108 6 243 20 219 22 -9 1 -19 9 -23 17 -3 8 -18 20 -32 25 l-27
11 29 30 c35 37 76 60 124 70 31 6 29 7 -21 8 -45 1 -63 -4 -100 -28z"/>
<path d="M67 153 c-18 -17 -5 -33 28 -33 47 0 45 -18 -2 -23 -33 -4 -32 -4 7
-3 34 1 46 5 48 19 3 14 -4 17 -32 17 -48 0 -46 18 2 23 l37 4 -41 1 c-22 1
-44 -1 -47 -5z"/>
<path d="M186 144 c-3 -9 -6 -25 -5 -37 1 -20 2 -20 9 3 l8 25 7 -22 c9 -27
30 -30 40 -5 7 16 8 15 15 -3 6 -17 8 -15 15 13 10 46 -1 52 -30 17 l-23 -30
-7 28 c-8 30 -20 35 -29 11z"/>
<path d="M334 148 c-4 -7 -13 -22 -20 -33 -13 -20 -11 -20 31 -20 49 0 50 1
35 39 -10 28 -34 34 -46 14z m36 -30 c0 -5 -9 -8 -20 -8 -18 0 -19 3 -9 21 9
17 13 19 20 8 5 -8 9 -17 9 -21z"/>
<path d="M428 125 l-4 -35 41 2 c38 1 38 1 6 5 -30 4 -33 7 -29 34 3 16 1 29
-3 29 -4 0 -9 -16 -11 -35z"/>
<path d="M541 150 c0 -8 -4 -25 -7 -37 -6 -21 -3 -23 37 -21 36 1 38 2 12 5
-27 4 -32 9 -36 36 -2 18 -5 25 -6 17z"/>
<path d="M634 125 c10 -32 12 -34 24 -18 8 10 18 27 24 38 11 20 11 20 -10 1
-20 -17 -22 -17 -28 -2 -12 32 -21 15 -10 -19z"/>
<path d="M727 153 c-4 -3 -6 -20 -6 -37 1 -17 3 -23 6 -13 3 10 15 18 31 18
24 2 24 2 5 6 -34 6 -28 21 10 26 l32 4 -36 1 c-20 1 -39 -1 -42 -5z"/>
<path d="M821 131 c-12 -16 -21 -31 -21 -33 0 -1 20 -3 45 -3 25 0 45 0 45 1
0 0 -5 15 -11 33 -14 39 -32 39 -58 2z m39 -1 c0 -11 -7 -20 -15 -20 -18 0
-19 12 -3 28 16 16 18 15 18 -8z"/>
<path d="M930 148 c0 -7 -3 -24 -7 -36 -5 -22 -4 -23 15 -11 17 11 24 11 34 1
13 -13 29 -16 26 -4 -1 4 3 17 10 28 6 12 8 24 5 28 -12 12 -83 6 -83 -6z m68
-10 c-7 -20 -58 -23 -58 -4 0 11 10 16 31 16 20 0 29 -4 27 -12z"/>
<path d="M1046 144 c-16 -42 -8 -54 37 -52 l42 1 -37 4 c-44 5 -51 22 -10 24
23 2 24 2 5 6 -36 7 -27 21 15 26 l37 4 -41 1 c-30 2 -44 -2 -48 -14z"/>
<path d="M1157 153 c-18 -17 -5 -33 28 -33 47 0 45 -18 -2 -23 -33 -4 -32 -4
7 -3 34 1 46 5 48 19 3 14 -4 17 -32 17 -48 0 -46 18 2 23 l37 4 -41 1 c-22 1
-44 -1 -47 -5z"/>
</g>
</svg>
